<svg t="1654176081172" class="icon" viewBox="0 0 1536 1024" version="1.1" xmlns="http://www.w3.org/2000/svg" p-id="10336" width="200" height="200"><path d="M1414.997333 511.317333c0-26.282667-19.370667-68.437333-56.917333-114.858666C1235.626667 244.906667 1001.813333 127.317333 768.256 127.317333c-317.184 0-646.826667 237.994667-646.826667 384 0 136.789333 335.786667 384 646.826667 384 310.954667 0 646.741333-247.210667 646.741333-384zM1536 512c0 218.88-397.312 512-768 512S0 730.88 0 512c0-228.778667 391.424-512 768-512 269.824 0 537.258667 134.656 682.496 314.794667C1504.768 382.037333 1536 450.304 1536 512z" p-id="10337"></path><path d="M896 512a128 128 0 1 0-256 0 128 128 0 0 0 256 0zM1024 512a256 256 0 1 1-512 0 256 256 0 0 1 512 0z" p-id="10338"></path></svg>