<svg t="1655028553913" class="icon" viewBox="0 0 1024 1024" version="1.1" xmlns="http://www.w3.org/2000/svg" p-id="20624" width="200" height="200"><path d="M64 169.248v518.784c0 40.384 33.44 73.248 74.528 73.248h455.84L822.176 928v-166.688h63.296c41.088 0 74.528-32.864 74.528-73.248V169.248C960 128.864 926.56 96 885.472 96H138.528C97.44 96 64 128.864 64 169.248z m47.168 0c0-14.816 12.288-26.88 27.36-26.88h746.976c15.072 0 27.36 12.064 27.36 26.88v518.784c0 14.816-12.288 26.88-27.36 26.88H775.04v113.44l-161.152-113.44H138.528a27.168 27.168 0 0 1-27.36-26.88V169.248z" fill="" p-id="20625"></path><path d="M673.92 416.704a58.08 57.088 0 1 0 116.16 0 58.08 57.088 0 1 0-116.16 0Z" fill="" p-id="20626"></path><path d="M453.92 416.704a58.08 57.088 0 1 0 116.16 0 58.08 57.088 0 1 0-116.16 0Z" fill="" p-id="20627"></path><path d="M233.92 416.704a58.08 57.088 0 1 0 116.16 0 58.08 57.088 0 1 0-116.16 0Z" fill="" p-id="20628"></path></svg>