<svg xmlns="http://www.w3.org/2000/svg" pointer-events="none" class="leaflet-zoom-animated" width="1452" height="874" viewBox="-121 -73 1452 874" style="transform: translate3d(-121px, -73px, 0px) scale(1);"><g><path class="leaflet-interactive" stroke="#201920" stroke-opacity="1" stroke-width="2" stroke-linecap="round" stroke-linejoin="round" fill="none" d="M362 321L362 317L361 318L359 314L363 312L362 309L365 306L366 307L369 304L371 304L371 302L374 303L376 301L377 304L383 304L388 296L393 297L396 294L397 295L397 293L403 291L406 288L413 286L413 279L416 276L415 275L418 274L418 270L415 263L415 257L411 255L411 253L424 249L432 251L433 250L430 247L430 245L436 227L443 230L452 231L456 229L458 227L456 216L460 212L462 213L465 211L467 207L466 206L468 204L474 204L476 211L481 213L483 217L489 217L490 220L493 219L493 221L496 223L498 230L500 230L501 233L501 236L499 238L500 241L498 244L499 251L500 250L503 252L504 251L510 253L520 253L531 261L536 261L535 264L537 264L538 269L544 278L550 277L569 280L585 280L592 285L593 284L598 287L608 288L609 290L613 291L616 288L633 281L643 282L654 279L662 271L666 270L669 267L665 261L666 256L669 252L682 256L686 254L691 248L698 248L704 243L703 242L708 237L712 237L713 234L717 235L719 233L724 232L726 234L733 233L732 228L722 218L717 217L713 221L704 219L701 222L698 219L698 217L700 215L707 195L715 199L722 194L728 192L729 189L727 189L727 187L732 180L734 172L737 169L739 169L740 166L739 161L737 159L734 160L734 158L742 150L743 151L759 147L763 147L767 150L768 149L770 152L773 153L779 153L779 156L781 156L782 160L785 162L784 165L786 166L785 167L788 172L787 173L789 174L789 180L792 183L793 190L795 190L794 195L797 199L804 198L804 200L810 200L810 202L812 202L816 207L820 207L818 210L821 214L819 216L823 222L834 221L839 216L841 217L848 213L855 213L852 214L851 219L853 221L847 227L848 228L845 235L846 238L839 251L836 252L829 249L827 251L828 252L822 254L825 264L825 270L823 276L818 278L819 281L816 278L816 276L813 275L812 280L810 282L809 281L806 286L798 286L801 291L799 293L792 292L790 290L791 289L789 289L790 288L787 289L782 298L775 301L769 306M402 388L399 385L399 383L402 380L404 384L406 382L406 378L401 372L401 368L404 365L398 361L396 353L391 354L384 351L384 349L381 350L379 347L380 344L377 341L375 341L375 339L367 337L369 335L371 336M628 478L626 478L627 475L625 475L627 471L625 469L620 470L616 466L614 466L612 470L607 470L604 473L602 471L600 471L597 474L594 471L592 471L591 474L586 473L586 485L582 484L582 480L574 482L574 480L572 480L571 477L567 477L567 471L569 469L564 467L564 463L562 461L564 459L558 459L554 461L553 460L555 458L553 456L555 452L554 451L562 443L561 442L563 438L563 430L560 427L560 429L558 427L558 423L554 421L554 419L552 421L553 422L551 422L552 425L549 427L542 422L538 422L535 423L535 425L532 427L527 428L521 434L517 435L509 435L509 429L505 429L504 424L499 425L490 422L486 426L484 431L482 429L483 424L481 423L479 425L474 426L470 426L465 423L463 425L461 423L461 425L457 421L454 422L453 418L450 419L445 414L445 412L441 414L436 409L434 409L434 407L433 408L432 406L430 406L429 403L424 402L422 406L408 396L405 397L402 394L402 388M637 482L632 481L628 478M640 611L639 602M648 527L651 531L652 536M656 560L654 568M668 632L676 629M698 601L703 595M722 571L725 562M726 529L726 538M734 504L729 512M749 480L743 488M754 465L756 455"/><path class="leaflet-interactive" stroke="#201920" stroke-opacity="1" stroke-width="2" stroke-linecap="butt" stroke-linejoin="round" stroke-dasharray="4,4" stroke-dashoffset="4" fill="none" d="M371 336L373 334L371 332L371 324L369 322L366 321L364 323L362 321"/><path class="leaflet-interactive" stroke="gray" stroke-opacity="1" stroke-width="1" stroke-linecap="round" stroke-linejoin="round" stroke-dasharray="8,4,4,4" fill="none" d="M682 476L682 476M687 473L685 473L684 476L689 476L689 474L687 473"/><path class="leaflet-interactive" stroke="#4190da" stroke-opacity="1" stroke-width="1" stroke-linecap="round" stroke-linejoin="round" fill="none" d="M686 475L686 473L684 474L683 471L682 476L680 478L679 477L679 479L676 478L674 480L671 479L669 481L659 483L655 486L655 488L658 491L656 493L652 493L650 487L652 483L650 481L648 483L646 483L646 481L637 482M656 485L656 485M656 485L656 487L656 485M682 476L682 476M686 475L686 475M686 475L686 475M686 475L686 475M733 436L730 437L732 437L733 440L730 441L731 444L729 446L733 446L731 448L728 447L728 449L726 449L727 450L726 451L726 449L724 453L723 452L724 453L722 456L719 455L719 457L713 464L709 464L705 470L699 470L697 472L695 470L692 473L690 471L690 473L689 474L689 472L687 474L689 474L686 475M733 436L733 436M748 414L746 418L747 421L744 424L743 423L742 426L741 425L733 438L732 437L734 435L733 436M746 340L744 342L740 342L741 345L740 344L739 347L736 348L736 346L736 348L727 359L737 367L741 377L741 381L746 385L745 386L749 388L749 390L744 388L742 390L744 392M744 392L750 397L749 398L751 400L747 398L742 401L745 402L749 407L751 407L748 409L750 410L749 414M746 340L746 340M746 340L746 340M752 314L749 318L745 320L742 319L747 316L747 314L746 315L743 312L745 312L745 310L752 303L751 300L750 301L748 299L743 298L738 303L738 305L731 308L728 311L728 313L722 317L722 319L719 318L719 316L717 316L715 320L715 324L717 324L717 326L724 327L727 330L728 329L728 331L725 332L725 334L728 337L732 337L732 335L736 332L735 331L739 330L745 332L745 334L751 333L755 335L752 340L746 340M746 340L746 340M748 414L748 414M748 414L748 414M748 414L748 414M749 414L748 414M749 414L749 414M751 406L751 406M751 406L751 406M751 406L751 406M752 406L751 406M751 406L749 404L751 404L752 406M752 406L752 406M752 404L753 403L752 404M752 404L752 404M752 314L752 314M769 306L767 310L761 310L752 314M753 399L753 399M753 399L753 399M755 398L755 398M644 481L644 481M646 486L646 486M649 496L649 496M649 600L650 598L653 599L652 598L649 600M650 511L642 507L642 501L647 496L659 493L662 497L659 500L657 506L651 509L650 511M653 596L654 595L653 596M656 489L656 489M657 485L657 485M657 596L657 596M657 594L658 593L657 594M658 486L658 484L658 486M658 492L658 492M658 594L658 594M658 487L658 487M663 530L663 530M665 520L666 519L665 520M665 590L665 590M665 525L665 525M665 584L665 584M666 598L666 598M666 596L666 596M666 525L666 525M666 524L666 524M666 595L667 596L666 595M666 527L666 527M666 589L667 590L666 589M666 524L666 524M667 597L667 597M667 524L667 524M667 527L668 526L667 527M667 525L668 524L667 525M667 528L667 528M669 594L669 594M669 526L669 526M669 628L669 628M671 588L671 588M671 588L671 588M671 628L671 628M671 522L671 522M671 531L671 531M671 520L672 521L671 520M671 587L672 588L671 587M671 627L671 627M672 587L672 587M672 614L672 614M672 521L672 521M672 522L672 522M673 526L672 527L673 526M673 481L673 481M673 613L673 613M673 529L674 528L673 529M673 525L674 524L673 525M673 582L673 582M673 614L674 613L673 614M673 612L674 613L673 612M674 588L674 588M674 611L674 611M674 618L674 618M674 481L674 481M674 614L674 614M674 616L674 616M674 525L675 526L674 525M674 618L674 618M675 480L674 481L675 480M675 526L675 526M675 523L675 523M676 481L675 480L676 481M676 587L676 587M676 481L676 481M676 522L676 522M676 596L676 596M676 582L676 582M676 582L676 582M677 619L677 619M677 591L677 591M677 499L677 499M677 581L677 581M677 479L677 479M678 478L678 478M678 479L678 479M679 478L679 478M679 608L679 608M679 594L679 594M679 594L680 593L679 594M682 476L682 476M682 576L682 576M682 603L682 603M682 587L683 586L682 587M683 585L683 585M683 478L683 478M683 532L683 532M683 478L683 478M683 478L683 478M683 478L683 478M683 598L684 597L683 598M684 600L684 600M684 474L684 474M684 477L684 477M684 502L684 502M684 476L686 476L684 476M684 578L684 578M684 533L684 533M684 531L685 532L684 531M684 595L685 594L684 595M684 598L689 595L690 596L688 598L684 598M685 587L684 588L685 587M685 530L685 530M685 588L685 588M685 587L686 588L685 587M685 534L685 534M686 578L686 578M686 571L686 571M686 594L686 594M686 529L686 529M686 476L686 476M687 478L687 478M687 583L687 583M687 475L687 475M687 478L687 478M687 588L687 588M687 528L687 528M687 477L687 477M687 533L687 533M687 576L687 576M687 580L687 580M687 476L687 476M687 532L688 533L687 532M688 581L688 581M688 567L688 567M688 473L688 473M688 570L688 570M688 475L688 475M688 577L688 577M688 572L688 572M688 566L688 566M689 528L689 528M689 579L689 579M689 532L689 532M689 580L689 580M689 571L689 571M689 572L689 572M689 579L689 579M689 594L690 593L689 594M690 579L690 579M690 579L690 579M690 567L690 567M690 579L690 579M690 588L691 587L690 588M690 532L690 532M690 579L691 578L690 579M690 567L691 566L690 567M690 474L690 474M691 598L691 598M691 593L691 593M691 575L691 575M691 566L691 566M691 570L692 569L691 570M691 527L691 527M691 580L691 580M692 593L692 593M692 569L692 569M692 530L692 530M692 572L692 572M692 601L692 601M692 595L692 595M693 571L693 571M693 528L693 528M693 599L693 599M693 569L693 569M695 591L696 592L695 591M695 590L696 591L695 590M696 577L696 577M696 546L696 546M697 583L697 583M697 579L697 579M697 591L698 590L697 591M699 574L699 574M699 574L699 574M699 574L699 574M699 575L700 574L699 575M700 574L700 574M700 581L701 580L700 581M700 571L700 571M701 486L701 486M701 485L702 486L701 485M701 584L701 584M702 578L702 578M703 582L703 582M704 587L704 587M705 580L705 580M705 585L705 585M705 580L705 580M705 575L707 575L705 575M706 580L706 580M707 574L707 574M707 526L707 526M707 566L708 567L707 566M707 489L707 489M707 586L707 586M708 488L708 490L708 488M708 574L708 574M711 465L709 465L711 465M711 573L711 573M711 572L711 572M712 576L712 576M712 573L713 572L712 573M712 569L712 569M712 578L712 578M713 570L713 570M715 573L715 573M715 570L715 570M715 536L716 535L715 536M716 572L716 572M718 456L718 456M719 456L718 455L719 456M719 457L720 456L719 457M721 456L720 457L721 456M723 317L723 317M724 316L724 316M724 316L725 317L724 316M729 467L729 467M729 450L730 449L729 450M730 466L730 466M730 463L730 463M730 463L730 463M730 446L730 446M731 441L731 441M731 464L730 465L731 464M731 445L731 445M731 446L731 446M731 437L732 436L731 437M731 448L731 448M731 448L731 448M732 437L732 437M733 446L733 446M733 441L733 441M733 443L733 443M734 465L734 465M734 440L733 441L734 440M734 438L734 438M735 438L735 438M735 437L735 437M735 435L735 435M735 351L735 351M736 434L736 434M736 475L736 475M736 434L736 434M737 331L737 331M738 439L738 439M739 329L738 328L739 329M739 478L735 471L734 464L740 454L745 449L747 449L749 451L749 456L745 468L741 473L741 479L739 478M739 328L739 328M739 329L739 329M740 327L740 327M740 302L740 302M740 325L740 325M741 324L741 324M741 325L741 325M742 344L742 344M742 425L742 425M742 429L742 429M742 425L743 424L742 425M743 425L744 424L743 425M745 389L750 392L749 393L743 389L745 389M745 382L745 382M745 472L745 472M746 477L746 477M747 478L747 478M747 392L747 392M747 414L747 414M748 418L748 418M748 394L746 393L748 394M748 393L750 394L748 393M748 405L748 405M748 417L748 417M748 418L749 417L748 418M749 420L749 420M749 405L748 406L749 405M749 394L749 394M749 420L749 420M749 447L749 447M749 453L749 453M749 405L749 405M749 395L750 394L749 395M749 403L749 403M750 414L750 414M750 408L750 408M750 406L750 406M750 404L750 404M750 400L750 400M750 406L750 406M750 406L750 406M751 406L751 406M751 406L751 406M751 404L751 404M751 403L752 404L751 403M751 404L751 404M751 411L751 411M751 409L750 408L751 409M751 409L751 409M751 406L752 407L751 406M752 407L752 407M752 407L752 407M752 409L751 408L752 409M752 407L753 406L753 408L752 407M753 316L753 316M753 406L753 406M753 402L753 402M754 402L754 402M754 316L754 316M754 315L754 315M754 400L754 400M755 316L756 315L755 316M756 405L756 405M756 318L755 317L756 318M756 399L756 399M756 399L756 399M758 312L757 313L758 312M758 313L758 313M759 318L759 318M760 445L762 445L760 445M762 444L762 444M763 443L764 444L763 443M763 446L763 446M763 445L763 445M763 446L763 446M763 310L763 310M770 443L769 444L770 443"/><path class="leaflet-interactive" stroke="#747569" stroke-opacity="0.6" stroke-width="1" stroke-linecap="round" stroke-linejoin="round" fill="none" d="M490 347L481 344L471 344L463 346L460 351L452 351L445 355L436 354L435 351L431 351L431 353L429 353L427 356L415 354L415 356L413 358L412 357L411 362L409 364L408 363L404 365M554 382L552 382L552 384L549 387L547 387L546 390L543 388L542 391L540 389L537 390L535 388L536 385L535 386L533 384L535 384L533 384L530 381L524 383L519 382L517 380L510 380L505 377L499 377L495 375L489 367L491 367L491 359L489 359L488 356L491 350L487 348L490 347M512 318L505 319L503 321L497 321L496 323L493 324L494 326L496 326L496 331L498 331L503 338L501 338L498 341L498 343L501 344L499 348L493 346L491 348L490 347M587 372L586 373L585 371L583 371L579 367L579 365L580 364L589 367L589 365L591 365L588 362L588 360L592 356L591 355L595 353L594 350L596 350L597 348L595 342L592 339L594 337L588 331L587 332L583 330L574 323L574 325L572 325L564 317L559 318L557 320L552 316L548 316L549 321L546 324L546 326L544 325L542 327L538 324L529 325L527 320L523 321L523 319L518 319L517 316L512 318M544 278L540 281L542 284L540 288L535 290L532 289L524 296L522 300L516 301L514 311L511 315L512 318M607 334L600 330L600 324L604 322L607 317L605 315L606 314L603 313L597 317L593 315L587 317L589 319L587 321L580 318L579 314L569 309L575 301L574 298L566 298L566 300L565 299L562 301L562 299L559 301L559 298L556 296L554 292L555 290L550 277M566 413L564 399L561 394L564 393L560 389L558 383L554 382M587 372L586 377L582 375L583 380L577 382L575 380L574 381L572 377L571 380L564 377L560 367L556 366L554 367L554 369L552 369L552 371L555 374L552 377L553 378L551 378L554 382M558 423L558 421L562 423L562 415L564 417L564 413L566 413M615 427L614 424L610 426L608 424L608 418L604 418L604 421L600 423L601 426L596 431L597 438L594 441L594 439L587 442L587 440L585 440L585 436L579 428L580 427L578 425L576 427L573 424L573 419L570 417L568 419L568 423L566 421L566 413M617 378L616 381L610 381L607 378L608 375L606 371L599 370L596 365L590 369L593 372L588 377L587 372M634 330L631 327L625 325L629 318L627 314L623 315L623 317L622 316L620 320L620 328L618 331L607 334M607 334L609 334L616 341L615 342L617 346L617 351L619 351L619 353L621 353L624 356L624 352L629 349L629 347L625 345L625 339L627 337L631 337M615 427L615 429L611 431L607 431L604 429L602 433L603 438L609 436L610 437L607 446L610 449L612 449L609 454M609 454L609 456L613 456L615 460L620 459L622 461L621 465L620 464L617 467M649 442L648 445L645 444L644 445L646 445L646 447L643 446L642 449L638 447L639 448L635 450L632 449L631 446L621 454L614 451L610 455L609 454M624 420L622 418L618 420L618 422L619 421L623 423L624 425L622 427L615 427M631 337L631 339L638 343L639 342L642 345L642 354L640 356L635 355L635 359L625 357L626 360L624 362L627 365L625 365L626 372L620 372L619 375L621 376L618 379L617 378M641 385L635 385L634 383L632 383L633 382L631 383L629 381L630 380L623 381L621 379L618 380L617 378M647 420L646 423L644 423L640 415L636 415L634 413L632 413L632 417L629 416L627 420L625 420L625 418L624 420M624 420L623 416L619 416L619 414L615 410L619 406L617 404L621 402L623 404L626 403L626 405L629 406L632 403L632 399L637 398L637 394L641 391L639 387L641 385M631 337L631 333L634 330M662 314L662 312L659 315L656 315L654 313L655 314L653 316L652 315L653 316L646 323L646 328L644 328L642 332L634 330M641 385L650 390M650 390L655 395L655 397L649 401L640 401L640 403L642 404L640 408L642 408L645 411L644 412L646 411L647 414M647 414L647 420M685 415L683 415L682 408L678 411L677 408L672 411L668 407L664 407L662 405L658 405L658 409L651 408L651 410L650 409L647 414M649 442L649 440L647 440L649 432L644 433L644 431L646 431L645 430L649 428L647 420M669 454L668 453L665 455L665 451L661 451L665 444L663 444L662 439L658 439L655 443L653 441L651 443L649 442M661 375L659 377L657 375L649 375L651 379L652 378L655 381L651 381L649 383L650 390M651 482L651 483M651 482L655 478L656 479L656 477L659 476L659 474L662 471L664 471L664 465L670 457L669 454M652 494L653 494M654 494L656 493M656 362L655 359L658 352L656 338L660 332L657 329L657 327L660 324L661 319L663 317L662 314M656 362L661 375M656 362L666 360L669 357L670 358L670 356L676 356L682 352L683 345M657 493L658 492M696 393L694 391L691 392L690 389L685 390L683 386L684 385L682 383L680 385L678 383L671 384L667 382L661 375M661 376L661 376M686 300L686 302L676 304L676 306L673 304L668 312L665 311L665 313L662 314M669 454L671 450L675 450L675 452L677 452L678 449L676 449L678 447L682 449L685 447M697 347L694 346L693 348L683 345M683 345L681 341L683 341L683 339L684 340L683 337L686 334L686 330L684 326L682 326L682 322L684 320L683 318L688 317L690 313L689 310L685 308L685 306L686 307L686 305L689 304L686 300M703 408L701 409L697 407L697 409L695 409L692 412L688 412L685 415M685 447L685 443L687 441L685 441L686 438L684 436L684 431L682 429L682 427L687 422L687 418L685 415M685 447L685 449L691 449L691 451L689 451L687 455L689 456L696 453L700 455L699 454L701 452M727 294L720 293L720 285L719 286L717 284L718 283L716 279L710 281L706 287L705 286L702 289L700 287L696 289L696 291L692 291L693 287L689 285L687 291L684 292L686 300M703 362L703 364L706 365L707 368L704 371L700 367L698 369L699 372L697 372L696 375L692 377L695 380L695 382L701 382L701 388L698 389L696 393M703 408L700 402L700 398L702 396L696 393M717 325L712 330L708 330L705 333L704 332L703 335L701 335L701 337L696 342L697 347M703 362L697 362L697 360L695 360L695 358L694 359L692 357L700 349L702 349L702 347L696 351L697 347M701 452L700 449L707 438L706 435L710 433L711 430L709 428L712 427L712 425L715 426L721 422M711 464L708 455L706 455L704 453L705 452L701 452M719 412L719 410L715 410L712 407L710 407L711 408L708 410L707 409L709 407L707 405L703 408M704 362L703 362M728 358L724 358L724 360L721 361L720 364L717 361L715 363L712 362L712 364L708 358L705 359L704 362M731 395L730 396L728 394L724 394L723 393L725 391L723 391L723 389L722 390L720 388L722 386L721 385L723 385L722 382L726 382L727 379L724 378L724 380L720 380L720 378L717 375L719 371L715 371L716 370L713 367L704 362M713 305L711 303L714 300L710 300L706 296L704 298L705 299L699 302L701 304L697 308L697 310L700 313L704 313L706 311L708 312M715 322L712 323L707 320L709 316L708 312M709 311L708 312M709 311L711 311L711 307M711 307L708 308L709 311M711 464L712 465M713 305L711 307M712 466L713 466M713 305L716 308L714 308L714 310L718 316M719 412L725 406L724 405L729 402L727 400L730 399L731 395M719 412L718 415L721 418L721 422M737 432L736 429L732 431L730 427L727 430L724 429L724 422L721 422M727 294L729 292L729 282L734 287L734 289L740 283L741 284L744 281L748 281L750 278L758 278L761 275L763 275L763 271M732 308L732 305L729 302L727 302L727 300L724 299L727 294M741 396L738 399L731 395M739 433L740 433M740 324L742 324M749 391L744 388L743 394L741 396M744 400L741 396M745 400L746 400M761 230L761 232L760 231L758 233L753 226L754 223L768 211L770 217L772 205L776 203L775 195L782 180L776 172L773 174L773 176L758 177L755 168L756 165L752 161L749 164L747 164L747 162L744 160L748 154L746 150M746 400L747 399M748 399L749 399M750 398L751 398M753 398L754 398M755 397L756 397M825 270L820 270L816 264L814 266L814 264L811 266L810 265L808 269L806 269L802 263L801 258L798 261L799 262L796 263L793 257L790 258L791 253L789 251L781 251L779 247L770 248L766 244L766 238L759 239M759 239L758 235L763 233L763 231L762 232L761 230M759 239L756 241L756 245L753 242L750 243L748 241L747 244L750 246L752 250L750 253L752 261L757 260L759 258L762 267L762 269L760 269L763 271M761 230L761 230M761 230L761 230M761 230L761 230M763 271L764 270L769 275L769 277L772 274L773 275L775 283L777 285L778 284L776 286L776 290L778 290L777 291L780 294L778 298L780 298M620 354L621 353L620 354M649 436L650 435L649 436M677 408L677 408"/><path class="leaflet-interactive" stroke="#3388ff" stroke-opacity="0" stroke-width="3" stroke-linecap="round" stroke-linejoin="round" fill="#fff" fill-opacity="0" fill-rule="evenodd" d="M712 301L714 301L709 300L707 296L702 301L699 302L701 304L700 306L697 307L697 310L700 313L704 313L706 311L707 312L709 310L708 307L713 306L711 304L712 301z"/><path class="leaflet-interactive" stroke="#3388ff" stroke-opacity="0" stroke-width="3" stroke-linecap="round" stroke-linejoin="round" fill="#3388ff" fill-opacity="0" fill-rule="evenodd" d="M716 314L717 313L714 310L714 308L716 308L713 305L711 307L711 311L708 312L709 316L707 320L715 322L717 318L716 317L718 315L715 314zM716 314L716 314z"/><path class="leaflet-interactive" stroke="#3388ff" stroke-opacity="0" stroke-width="3" stroke-linecap="round" stroke-linejoin="round" fill="#fff" fill-opacity="0" fill-rule="evenodd" d="M713 301L711 303L716 308L714 308L714 310L721 319L728 313L728 310L732 308L730 302L728 302L725 299L725 297L728 294L720 293L720 285L719 286L717 284L718 283L716 279L710 281L707 287L701 287L696 289L696 291L693 290L693 287L691 285L689 285L687 291L684 292L684 296L688 304L690 304L685 307L689 309L689 315L685 317L682 322L682 326L685 328L686 331L683 337L684 338L681 342L684 345L693 348L695 346L696 347L696 343L700 339L701 335L704 333L705 334L708 330L712 330L717 325L714 322L710 322L707 320L709 316L707 311L705 313L699 313L697 311L697 308L701 304L699 302L702 301L707 296L709 300L713 301zM711 307L708 308L709 311L711 311L711 307zM716 314L715 314zM724 316L724 317z"/><path class="leaflet-interactive" stroke="#3388ff" stroke-opacity="0" stroke-width="3" stroke-linecap="round" stroke-linejoin="round" fill="#fff" fill-opacity="0" fill-rule="evenodd" d="M656 362L666 360L669 357L670 358L670 356L676 356L682 352L683 345L681 341L684 339L683 338L686 333L685 328L682 325L684 321L683 318L688 317L690 313L689 310L685 307L690 304L688 304L687 300L682 304L679 303L676 304L675 306L673 304L668 312L666 311L663 314L660 324L657 327L657 329L660 332L656 338L658 350L655 359L656 362z"/><path class="leaflet-interactive" stroke="#3388ff" stroke-opacity="0" stroke-width="3" stroke-linecap="round" stroke-linejoin="round" fill="#fff" fill-opacity="0" fill-rule="evenodd" d="M550 277L555 290L553 292L559 298L559 301L563 301L565 299L566 300L566 298L573 298L575 301L574 305L569 309L579 314L579 318L582 318L585 321L587 321L589 319L587 317L592 315L596 317L600 314L605 313L607 317L604 322L600 324L600 330L608 334L617 331L620 328L620 320L622 316L623 317L623 315L626 314L629 317L629 319L625 325L628 327L632 327L632 329L637 330L637 332L642 332L643 329L646 328L645 325L653 316L652 315L653 316L655 314L654 313L656 315L658 315L661 312L663 314L666 311L667 312L673 304L675 306L679 303L682 304L686 302L684 292L687 291L689 285L691 285L693 287L692 290L695 291L700 287L702 289L705 286L706 287L709 285L709 281L713 281L716 279L718 283L717 284L719 286L720 285L720 293L727 294L729 292L729 286L727 284L729 282L734 287L734 289L740 283L741 284L744 281L748 281L754 277L757 278L763 274L763 272L760 269L762 269L762 267L759 258L752 262L750 255L752 251L747 244L748 241L750 243L753 242L756 245L756 241L759 239L758 235L763 233L762 230L760 230L761 231L759 233L757 232L757 230L753 226L754 223L762 218L768 211L770 217L772 205L776 203L775 195L782 180L776 172L773 174L773 176L758 176L755 169L756 164L754 164L751 161L748 164L744 160L748 154L747 151L742 150L734 158L734 160L739 160L740 167L733 174L734 175L729 182L730 183L727 189L729 189L728 192L715 199L707 195L700 211L700 215L698 216L698 219L701 222L704 219L713 222L717 217L722 218L732 228L733 233L731 235L726 234L724 232L716 235L714 234L712 237L708 237L703 243L704 244L699 248L691 248L686 254L682 256L676 255L673 252L668 252L665 260L669 268L661 272L656 278L644 282L633 281L624 284L613 291L610 290L609 288L598 287L594 284L592 285L585 280L564 280L551 278z"/><path class="leaflet-interactive" stroke="#3388ff" stroke-opacity="0" stroke-width="3" stroke-linecap="round" stroke-linejoin="round" fill="#fff" fill-opacity="0" fill-rule="evenodd" d="M762 310L766 310L773 302L774 303L780 298L780 294L777 291L778 290L776 290L776 286L778 284L777 285L775 283L775 279L772 274L769 277L769 274L764 270L762 275L759 276L760 277L753 277L753 279L751 278L748 281L744 281L734 289L734 287L729 282L727 284L729 286L729 291L725 296L725 299L728 302L730 302L732 308L738 305L738 303L743 298L748 298L752 302L749 305L750 306L745 310L746 311L743 313L747 315L747 317L746 316L746 318L745 317L743 321L748 318L749 319L748 318L754 313L762 310zM755 315L755 315zM752 316L752 316zM755 315L756 316L755 315zM756 318L755 317L756 318zM758 312L757 313L758 312zM754 315L754 316zM740 302L740 302zM758 313L758 313zM759 318L759 318zM763 310L764 310z"/><path class="leaflet-interactive" stroke="#3388ff" stroke-opacity="0" stroke-width="3" stroke-linecap="round" stroke-linejoin="round" fill="#fff" fill-opacity="0" fill-rule="evenodd" d="M811 282L813 275L815 275L819 281L819 279L817 278L821 277L824 274L825 271L817 268L817 264L815 266L813 264L809 266L808 269L806 269L802 263L801 258L798 261L799 262L796 263L793 257L790 258L791 253L789 251L781 251L779 247L775 249L773 247L770 248L766 244L766 240L764 238L760 238L756 241L756 245L753 242L750 243L748 241L747 244L750 246L752 251L750 253L752 261L754 262L759 258L762 267L762 269L760 269L762 271L764 270L767 273L768 272L768 275L770 277L772 274L773 275L775 283L777 285L778 284L776 286L776 290L778 290L777 291L780 294L780 298L783 297L789 288L793 292L800 293L798 286L806 286L809 281L811 282z"/><path class="leaflet-interactive" stroke="#3388ff" stroke-opacity="0" stroke-width="3" stroke-linecap="round" stroke-linejoin="round" fill="#3388ff" fill-opacity="0" fill-rule="evenodd" d="M762 239L766 239L766 243L770 248L773 247L775 249L779 247L781 251L789 251L791 253L790 258L793 257L797 263L799 263L798 260L801 258L802 263L806 269L808 269L808 267L813 264L815 266L817 264L817 268L823 271L824 264L822 255L829 250L838 253L839 252L839 248L846 237L845 236L848 228L847 227L852 222L852 214L855 212L839 216L836 219L835 218L836 219L834 221L823 222L819 217L821 215L818 210L820 207L816 207L809 200L806 201L803 198L797 199L795 197L795 190L793 190L792 183L789 180L790 177L788 177L789 174L787 173L788 172L785 168L786 167L782 159L783 158L779 156L780 155L778 153L772 153L762 147L747 149L746 150L748 154L743 160L746 161L747 164L749 164L752 161L756 165L755 168L758 177L773 176L775 172L782 179L780 187L775 194L776 202L772 204L770 217L768 211L757 222L754 223L753 226L758 233L760 231L761 232L761 230L762 232L763 231L763 233L758 234L759 238L762 239z"/><path class="leaflet-interactive" stroke="#3388ff" stroke-opacity="0" stroke-width="3" stroke-linecap="round" stroke-linejoin="round" fill="#3388ff" fill-opacity="0" fill-rule="evenodd" d="M741 396L745 400L750 397L745 392L743 392L741 396zM749 391L744 388L743 389L746 392L750 392zM748 394L746 392L748 394zM748 393L751 394L748 393zM747 392L746 392zM749 395L749 394zM749 394L749 394z"/><path class="leaflet-interactive" stroke="#3388ff" stroke-opacity="0" stroke-width="3" stroke-linecap="round" stroke-linejoin="round" fill="#3388ff" fill-opacity="0" fill-rule="evenodd" d="M712 363L711 364L708 359L704 361L711 367L714 367L716 371L718 371L717 376L719 376L721 380L725 378L727 380L726 383L722 381L723 384L720 388L722 390L723 389L723 391L725 391L723 394L729 394L728 395L732 395L738 399L745 391L743 390L744 388L749 391L749 388L741 380L737 367L729 361L727 357L724 358L721 364L719 364L717 361L715 363L712 363z"/><path class="leaflet-interactive" stroke="#3388ff" stroke-opacity="0" stroke-width="3" stroke-linecap="round" stroke-linejoin="round" fill="#3388ff" fill-opacity="0" fill-rule="evenodd" d="M721 422L724 423L724 429L727 430L731 427L732 430L736 429L738 432L739 428L743 426L742 423L743 424L747 422L747 414L750 413L748 409L751 407L747 406L742 401L744 399L741 396L738 399L732 395L730 399L727 400L729 402L726 403L724 405L725 406L718 413L718 415L721 418L721 421zM751 406L752 407L752 405L750 404L751 406zM751 404L751 405zM752 409L752 409zM753 399L753 399zM751 403L752 404L751 403zM752 404L752 403zM750 414L750 413zM753 407L753 407zM753 402L753 402zM748 417L749 417zM752 407L752 408zM748 414L748 414zM743 428L743 428zM749 399L750 400L749 399zM749 420L749 420zM751 409L750 408L751 409zM753 406L753 407zM754 400L754 400zM749 420L749 420zM750 404L750 404zM753 406L753 406zM748 406L749 405L748 406zM742 429L742 429zM749 413L750 414L749 413zM750 408L750 409zM749 405L749 405zM749 403L749 403zM751 406L751 406zM752 409L752 408zM743 426L743 426zM756 405L756 405zM752 403L752 403zM752 407L752 407zM756 399L756 399zM742 425L743 424L742 425zM743 425L744 424L743 425zM753 406L753 406zM756 399L756 399zM751 406L752 406zM750 406L750 406zM742 425L742 424zM753 407L753 407zM751 406L751 406z"/><path class="leaflet-interactive" stroke="#3388ff" stroke-opacity="0" stroke-width="3" stroke-linecap="round" stroke-linejoin="round" fill="#3388ff" fill-opacity="0" fill-rule="evenodd" d="M706 368L707 369L703 371L699 367L699 372L697 372L696 375L692 377L695 380L695 382L701 382L701 389L699 389L696 392L700 396L702 396L699 400L703 408L706 407L706 405L709 407L707 409L708 410L711 407L713 407L714 410L721 411L725 406L724 405L729 402L727 400L729 400L731 396L728 395L729 394L723 394L725 392L721 388L723 384L722 381L726 383L727 380L725 378L721 380L719 376L717 376L719 371L715 371L716 369L714 367L710 367L705 362L703 363L704 365L706 365L706 368zM724 392L725 392zM707 409L707 409zM697 383L697 383z"/><path class="leaflet-interactive" stroke="#3388ff" stroke-opacity="0" stroke-width="3" stroke-linecap="round" stroke-linejoin="round" fill="#3388ff" fill-opacity="0" fill-rule="evenodd" d="M726 452L725 449L727 451L726 450L729 449L727 449L727 447L733 447L729 445L731 445L731 441L733 439L731 437L733 437L733 435L734 436L732 438L735 437L734 436L737 433L737 431L732 431L730 427L728 430L725 429L723 421L720 422L720 424L716 426L713 425L710 428L711 430L706 435L707 438L705 442L702 444L700 452L704 452L706 454L705 455L708 454L709 461L712 464L719 458L718 455L722 456L724 454L723 453L726 452zM721 456L720 457L721 456zM729 450L730 449L729 450zM730 446L730 446zM733 441L733 440zM719 457L719 456zM733 436L733 436zM719 456L718 455L719 456zM733 441L733 441zM731 441L730 441zM734 438L734 438zM731 446L731 445zM732 437L732 437zM735 437L735 437zM736 434L736 434zM735 435L735 435zM731 437L732 436L731 437z"/><path class="leaflet-interactive" stroke="#3388ff" stroke-opacity="0" stroke-width="3" stroke-linecap="round" stroke-linejoin="round" fill="#3388ff" fill-opacity="0" fill-rule="evenodd" d="M719 412L718 410L714 410L713 407L711 407L708 410L707 409L709 407L707 405L701 409L697 407L697 409L695 409L692 412L688 412L685 415L687 417L687 422L683 426L682 430L684 430L683 433L686 438L685 440L687 440L685 448L691 449L687 454L689 456L696 453L699 455L700 454L702 445L707 438L706 435L711 431L710 428L713 425L716 426L721 423L721 419L718 415L719 412z"/><path class="leaflet-interactive" stroke="#3388ff" stroke-opacity="0" stroke-width="3" stroke-linecap="round" stroke-linejoin="round" fill="#fff" fill-opacity="0" fill-rule="evenodd" d="M704 362L705 359L708 358L711 363L715 363L717 361L720 364L722 361L724 361L723 360L725 358L729 357L729 355L736 348L736 346L736 348L739 347L740 344L741 345L740 342L741 343L749 339L752 340L755 334L745 334L745 332L739 330L735 331L736 332L732 335L732 337L728 337L725 333L728 332L728 330L725 327L722 328L717 325L712 330L708 330L705 333L704 332L704 334L703 333L704 334L701 335L701 337L696 342L696 351L702 347L702 349L700 349L692 357L699 363L704 362zM739 329L740 329zM739 328L739 328zM742 344L741 344zM740 327L740 326zM741 325L741 324zM735 351L735 350zM739 329L738 328zM740 325L740 325zM746 332L746 332zM746 332L746 332zM746 332L746 332zM697 349L697 349z"/><path class="leaflet-interactive" stroke="#3388ff" stroke-opacity="0" stroke-width="3" stroke-linecap="round" stroke-linejoin="round" fill="#fff" fill-opacity="0" fill-rule="evenodd" d="M675 384L678 383L681 385L683 383L685 390L690 390L691 392L694 391L696 393L697 390L701 389L701 383L697 383L695 379L692 378L696 376L699 367L703 371L707 369L703 362L697 362L697 360L695 360L694 358L693 359L692 356L702 348L697 349L696 351L697 348L695 346L693 348L684 345L682 352L677 356L670 355L669 358L656 363L663 379L670 384L674 384zM683 384L683 385z"/><path class="leaflet-interactive" stroke="#3388ff" stroke-opacity="0" stroke-width="3" stroke-linecap="round" stroke-linejoin="round" fill="#fff" fill-opacity="0" fill-rule="evenodd" d="M662 376L649 376L652 379L654 379L653 382L650 381L649 385L650 390L654 393L655 397L648 401L640 401L642 404L640 408L642 408L645 411L644 412L646 411L647 414L648 411L650 409L651 410L651 408L658 409L658 405L668 407L671 410L675 410L677 408L678 411L682 407L682 413L684 415L687 412L693 412L692 411L698 407L701 409L702 408L702 404L700 402L700 398L702 396L698 395L694 391L691 392L690 389L685 390L683 384L670 384L667 381L666 382L662 376zM646 401L646 401zM662 376L662 376zM675 384L675 384zM676 408L677 408z"/><path class="leaflet-interactive" stroke="#3388ff" stroke-opacity="0" stroke-width="3" stroke-linecap="round" stroke-linejoin="round" fill="#3388ff" fill-opacity="0" fill-rule="evenodd" d="M669 454L671 450L675 450L675 452L677 452L676 449L678 447L682 449L685 446L685 442L687 441L685 441L686 438L684 436L684 430L682 430L682 428L683 425L686 424L685 423L687 421L687 417L684 414L683 415L682 408L678 411L677 408L675 410L671 410L668 407L657 405L657 409L649 409L647 413L647 424L649 428L647 430L646 429L646 431L643 433L648 432L650 434L650 436L648 436L647 439L652 444L652 441L656 443L658 440L664 440L663 443L665 443L661 452L665 450L665 454L669 453zM649 436L649 436z"/><path class="leaflet-interactive" stroke="#3388ff" stroke-opacity="0" stroke-width="3" stroke-linecap="round" stroke-linejoin="round" fill="#3388ff" fill-opacity="0" fill-rule="evenodd" d="M682 476L683 472L689 474L690 471L692 473L695 470L697 472L699 470L705 470L708 467L708 465L711 464L708 454L705 455L706 454L704 452L700 452L700 455L698 455L697 453L689 456L687 454L691 450L690 448L685 449L685 447L679 447L677 449L676 448L678 450L676 452L674 450L670 451L671 452L669 454L669 460L664 465L665 468L662 472L659 473L658 476L656 476L655 479L654 478L652 481L651 480L652 483L650 487L652 493L656 493L658 491L655 488L657 484L669 481L671 479L679 479L682 476zM710 465L710 465zM676 480L675 481L676 480zM673 481L674 481zM687 477L687 477zM657 485L658 486L658 484L657 485zM673 481L673 480zM657 486L655 486L658 486zM683 478L683 478zM683 478L683 478zM678 479L678 479zM684 474L684 474zM687 478L687 478zM687 478L686 478zM708 488L709 489L707 490L709 490L708 488zM677 479L677 479zM656 489L656 489zM658 487L658 487zM658 492L658 492zM701 485L702 486L701 485zM701 486L701 486zM700 471L700 471zM700 471L700 471z"/><path class="leaflet-interactive" stroke="#3388ff" stroke-opacity="0" stroke-width="3" stroke-linecap="round" stroke-linejoin="round" fill="#3388ff" fill-opacity="0" fill-rule="evenodd" d="M649 442L648 445L645 444L644 445L646 445L644 447L643 446L642 449L641 447L639 447L638 450L636 450L630 446L628 450L621 454L614 451L611 455L609 455L616 460L621 459L623 461L622 464L620 464L617 467L620 470L625 469L627 471L625 475L627 476L626 478L637 482L642 480L645 481L645 483L647 483L650 481L651 482L651 480L652 481L655 478L656 479L656 477L659 476L659 474L665 469L665 463L669 461L668 459L670 457L668 453L665 455L664 450L662 452L661 451L665 444L663 444L663 440L658 440L655 443L653 441L652 444L649 442zM614 452L614 452zM646 486L646 486z"/><path class="leaflet-interactive" stroke="#3388ff" stroke-opacity="0" stroke-width="3" stroke-linecap="round" stroke-linejoin="round" fill="#fff" fill-opacity="0" fill-rule="evenodd" d="M654 495L647 496L642 501L642 507L644 509L650 511L658 505L658 502L662 498L659 494L654 494zM671 628L671 628zM679 594L680 593zM669 628L669 628zM665 520L666 519L665 520zM715 536L715 535zM671 627L671 627zM667 527L668 527zM666 527L667 527zM684 598L688 598L690 596L689 595L685 598zM685 587L686 588L685 587zM685 588L685 588zM669 526L669 526zM667 525L668 524L667 525zM671 588L671 588zM684 600L684 600zM687 588L687 588zM671 520L672 521L671 520zM691 575L691 575zM700 581L700 580zM690 579L691 578zM683 598L684 597zM649 600L651 598L653 599L649 599zM704 587L704 587zM673 529L674 528L673 529zM674 588L674 588zM689 571L690 571zM673 526L673 526zM705 575L706 575zM672 521L672 521zM665 525L666 525zM697 579L698 579zM691 593L691 593zM689 594L690 593zM695 591L696 592L695 591zM684 595L685 594zM697 583L697 583zM705 585L705 585zM682 587L683 586L682 587zM691 570L692 569L691 570zM690 567L690 566zM693 571L693 571zM666 525L666 525zM685 587L685 588zM653 596L653 595zM707 566L708 567L707 566zM667 524L667 524zM673 525L674 524L673 525zM667 528L668 528zM684 578L684 577zM692 593L692 593zM706 580L706 581zM696 577L696 577zM708 574L708 574zM691 527L691 527zM701 584L701 584zM683 585L683 585zM691 598L691 598zM689 572L690 572zM716 572L716 572zM687 576L687 576zM691 566L691 566zM707 574L707 574zM657 594L658 593L657 594zM665 590L665 590zM695 590L696 590zM679 594L679 594zM686 571L686 571zM712 576L712 575zM687 528L687 528zM658 594L658 594zM697 591L698 590zM666 598L666 598zM666 589L667 589zM657 596L657 596zM672 587L672 587zM705 580L705 580zM669 594L669 594zM689 532L689 532zM693 569L694 569zM686 529L686 529zM702 578L702 577zM712 573L712 572zM692 601L692 601zM676 587L676 587zM667 597L667 597zM671 588L671 588zM673 612L674 612zM690 588L690 587zM692 595L692 594zM677 591L677 591zM682 603L682 603zM707 526L707 526zM712 578L712 577zM677 499L677 499zM689 528L689 528zM684 502L684 502zM674 618L675 618zM666 595L666 595zM671 587L672 587zM676 596L677 596zM674 614L674 614zM673 614L673 613zM696 546L696 546zM682 576L682 576zM684 533L684 533zM677 619L677 619zM674 618L674 618zM672 614L672 614zM671 522L671 522zM671 531L671 531zM674 616L674 616zM673 613L673 613zM679 608L679 608zM703 582L703 582zM693 599L693 598zM666 596L666 596zM685 530L685 530zM693 528L693 529zM707 586L707 586zM674 525L675 525zM663 496L663 496zM699 575L700 575zM711 572L711 573zM675 526L675 526zM700 574L700 574zM673 582L674 582zM690 532L690 532zM712 569L712 570zM715 570L715 570zM687 583L687 583zM691 580L691 581zM674 611L674 611z"/><path class="leaflet-interactive" stroke="#3388ff" stroke-opacity="0" stroke-width="3" stroke-linecap="round" stroke-linejoin="round" fill="#fff" fill-opacity="0" fill-rule="evenodd" d="M624 420L625 417L626 420L630 416L631 417L633 413L635 413L636 416L640 414L640 418L642 418L642 420L645 423L648 419L648 415L646 411L644 411L644 409L640 408L642 404L640 402L642 402L643 400L646 401L654 398L655 395L653 392L651 390L647 390L645 387L641 385L641 387L639 387L641 391L637 395L638 394L636 399L632 399L633 400L629 406L627 406L626 403L623 404L619 402L619 404L617 404L619 406L616 412L619 413L619 415L621 415L624 419zM646 400L646 401zM618 405L618 405zM646 401L646 401zM629 406L629 406z"/><path class="leaflet-interactive" stroke="#3388ff" stroke-opacity="0" stroke-width="3" stroke-linecap="round" stroke-linejoin="round" fill="#fff" fill-opacity="0" fill-rule="evenodd" d="M582 432L587 442L596 439L596 431L601 426L601 422L602 423L604 421L603 420L607 418L607 422L609 422L607 424L609 426L615 424L616 427L623 427L623 423L619 421L618 422L618 420L621 417L624 420L623 416L619 416L619 414L615 410L619 407L618 404L617 405L620 402L623 404L626 403L626 405L629 406L633 399L637 398L637 394L641 391L639 387L641 387L641 385L637 385L634 383L633 384L633 382L630 383L629 380L622 381L622 379L620 379L618 381L617 378L616 381L610 381L607 378L608 375L606 371L599 370L596 365L591 368L593 372L588 377L587 372L586 377L582 375L583 380L577 382L575 380L574 381L572 377L571 380L564 377L560 367L554 367L552 371L555 374L552 376L553 377L551 379L559 385L563 393L561 395L564 399L566 420L568 423L568 419L570 417L574 421L573 424L576 427L578 425L582 432zM623 404L623 404zM629 405L629 405zM617 404L617 404z"/><path class="leaflet-interactive" stroke="#3388ff" stroke-opacity="0" stroke-width="3" stroke-linecap="round" stroke-linejoin="round" fill="#3388ff" fill-opacity="0" fill-rule="evenodd" d="M647 420L646 423L644 423L643 420L642 421L642 419L640 418L640 414L636 416L636 414L633 413L632 416L630 416L626 420L625 417L624 420L621 417L618 420L618 422L619 421L623 423L623 426L617 426L614 430L611 431L608 429L606 431L604 429L602 433L603 438L610 437L607 446L610 449L612 449L609 453L611 455L615 451L621 455L623 453L622 452L628 450L630 446L632 447L632 449L637 450L639 448L638 447L642 448L642 446L644 447L646 445L644 445L645 444L648 445L649 440L647 440L647 436L649 436L649 432L644 433L646 431L645 430L649 428L647 420zM649 435L649 435zM649 436L650 436z"/><path class="leaflet-interactive" stroke="#3388ff" stroke-opacity="0" stroke-width="3" stroke-linecap="round" stroke-linejoin="round" fill="#fff" fill-opacity="0" fill-rule="evenodd" d="M615 427L613 423L612 425L609 426L607 424L609 422L607 422L608 419L604 419L604 421L602 423L601 422L600 427L596 431L597 438L594 441L594 439L588 442L581 432L579 428L580 427L578 425L576 427L573 424L574 421L570 417L568 419L568 423L566 421L566 413L564 413L564 417L562 415L561 418L563 421L561 423L559 421L558 422L559 429L562 428L563 431L563 441L561 441L562 443L554 451L555 452L553 456L555 458L553 460L554 461L558 459L564 459L562 461L564 464L563 465L565 468L569 468L566 476L571 477L575 482L579 482L581 480L583 482L582 483L586 485L587 480L585 475L587 473L590 474L593 471L597 474L600 471L604 473L607 470L608 472L612 470L611 469L614 466L617 467L620 464L622 464L623 461L621 459L616 460L613 456L609 456L611 451L611 449L608 446L610 437L608 436L604 438L602 435L604 429L606 431L608 429L612 431L615 428z"/><path class="leaflet-interactive" stroke="#3388ff" stroke-opacity="0" stroke-width="3" stroke-linecap="round" stroke-linejoin="round" fill="#fff" fill-opacity="0" fill-rule="evenodd" d="M490 347L481 344L471 344L463 346L460 351L459 350L457 352L454 350L445 355L436 354L435 351L431 351L431 353L429 353L427 356L415 354L415 356L413 358L412 357L411 362L409 364L405 364L401 368L401 372L406 379L405 384L403 384L402 381L399 382L399 386L402 388L402 394L405 397L408 396L413 401L414 400L418 402L422 406L424 402L429 403L441 414L443 412L446 413L445 414L450 419L453 418L455 422L458 421L460 425L462 423L462 425L466 423L469 426L477 426L479 424L483 424L482 429L484 431L491 422L499 424L501 426L503 424L505 428L509 430L510 435L521 434L527 428L532 427L535 425L535 423L538 422L542 422L549 426L552 424L551 423L553 419L558 423L558 421L562 423L562 415L564 417L564 413L566 413L564 404L565 403L563 396L561 394L564 393L560 389L558 383L551 382L552 385L551 384L550 387L546 387L547 390L543 388L542 391L540 389L537 390L535 388L536 385L533 385L534 384L529 381L521 383L516 380L510 380L505 377L499 377L495 375L489 368L491 366L491 359L489 359L488 356L491 350L487 348L490 347z"/><path class="leaflet-interactive" stroke="#3388ff" stroke-opacity="0" stroke-width="3" stroke-linecap="round" stroke-linejoin="round" fill="#fff" fill-opacity="0" fill-rule="evenodd" d="M656 362L655 359L658 352L656 338L660 332L657 326L661 322L661 318L663 315L662 312L658 315L654 313L655 314L653 316L652 315L653 316L646 323L646 328L644 328L642 332L638 332L635 329L631 333L631 339L638 343L639 342L642 345L642 355L635 355L635 359L625 357L626 360L624 362L627 365L625 365L626 367L624 369L626 372L620 372L619 375L621 376L619 379L617 379L621 379L623 381L629 380L630 383L633 382L633 384L634 383L637 386L640 385L650 390L649 383L651 381L655 381L652 378L651 379L651 377L649 376L658 375L659 377L661 375L656 362zM661 373L661 373zM622 380L622 380z"/><path class="leaflet-interactive" stroke="#3388ff" stroke-opacity="0" stroke-width="3" stroke-linecap="round" stroke-linejoin="round" fill="#fff" fill-opacity="0" fill-rule="evenodd" d="M625 351L624 356L620 354L621 353L619 353L616 350L616 340L609 334L604 333L602 330L600 330L600 324L604 322L607 317L605 313L600 314L597 317L592 315L589 316L589 319L587 321L580 318L579 314L577 314L571 309L568 309L573 305L575 301L574 298L566 298L566 300L565 299L562 301L562 299L559 301L559 298L556 296L554 292L554 286L550 277L542 279L540 281L542 284L541 287L535 290L532 289L524 296L522 300L516 301L514 311L511 315L512 318L514 316L518 316L518 319L522 319L524 321L527 320L529 324L538 324L542 327L544 325L546 326L546 324L549 321L549 316L558 320L559 317L561 319L563 317L566 318L565 319L572 325L574 326L574 323L577 326L578 325L582 330L590 332L597 348L588 360L588 362L591 365L587 367L580 364L579 365L582 371L587 373L588 372L588 376L591 375L590 374L592 374L593 372L590 368L592 368L595 365L598 367L599 370L606 371L608 375L607 378L610 381L616 381L617 378L620 378L620 372L626 372L625 365L627 365L624 362L626 360L625 357L634 359L636 358L634 356L635 355L641 356L641 350L643 348L642 344L633 340L630 337L626 337L626 341L624 343L625 346L629 348L628 351L626 351zM621 353L622 353zM595 345L596 345zM622 354L622 354zM625 351L625 351z"/><path class="leaflet-interactive" stroke="#3388ff" stroke-opacity="0" stroke-width="3" stroke-linecap="round" stroke-linejoin="round" fill="#3388ff" fill-opacity="0" fill-rule="evenodd" d="M595 345L595 341L589 331L588 332L586 330L582 330L580 326L579 327L574 323L574 325L572 325L564 317L562 317L561 319L559 317L557 320L552 316L548 316L549 321L546 324L546 326L544 325L542 327L538 324L529 325L527 320L524 321L522 319L518 319L518 317L515 316L503 321L498 321L493 324L494 326L497 325L496 331L503 337L498 340L498 342L501 343L501 346L499 348L493 346L491 348L487 348L491 350L488 355L488 357L491 360L491 366L489 368L495 375L499 377L502 376L510 380L519 381L521 383L529 381L536 386L535 388L537 390L540 389L542 391L543 388L547 390L546 387L547 388L550 387L551 384L552 385L551 382L553 382L552 377L554 374L552 370L555 366L560 368L563 375L567 379L570 380L572 378L574 380L573 381L576 380L578 382L583 380L582 375L585 375L586 377L587 373L583 371L579 366L581 364L586 367L591 365L588 362L588 360L592 356L591 355L595 353L594 351L597 348L596 345z"/><path class="leaflet-interactive" stroke="#3388ff" stroke-opacity="0" stroke-width="3" stroke-linecap="round" stroke-linejoin="round" fill="#3388ff" fill-opacity="0" fill-rule="evenodd" d="M631 337L631 333L634 330L631 327L625 325L629 318L627 314L623 315L623 317L622 316L620 320L620 328L618 331L607 334L609 334L616 341L615 342L617 346L617 351L619 351L619 353L621 353L624 356L624 351L628 351L629 348L625 345L625 339L627 337L631 337zM621 353L621 354zM622 354L622 354z"/><path class="leaflet-interactive" stroke="#3388ff" stroke-opacity="0" stroke-width="3" stroke-linecap="round" stroke-linejoin="round" fill="#3388ff" fill-opacity="0" fill-rule="evenodd" d="M544 278L540 273L537 264L535 264L536 261L532 261L520 253L510 253L504 251L503 252L501 250L500 251L498 246L501 241L499 238L501 234L500 230L498 230L494 221L488 217L485 218L481 216L481 214L476 210L477 209L474 208L474 203L472 205L467 204L467 208L462 213L460 212L456 216L458 225L456 229L452 231L443 230L436 227L430 245L430 247L433 249L432 251L427 250L426 248L424 250L417 252L416 251L411 254L415 257L415 263L418 270L418 273L415 275L416 276L413 279L414 284L409 288L397 293L396 295L394 295L394 297L387 297L382 304L379 303L377 305L377 301L373 303L370 302L371 304L369 304L366 307L365 306L362 309L363 312L360 313L361 318L362 317L361 320L364 323L365 321L370 323L372 331L371 332L373 334L371 336L367 336L378 341L380 343L379 348L382 350L383 349L391 354L396 353L396 357L398 359L397 361L403 365L411 363L412 358L415 356L415 354L427 356L432 351L434 351L437 354L442 355L454 350L456 352L459 351L464 346L468 346L471 344L481 344L491 348L493 346L499 348L501 344L498 341L503 337L497 331L497 325L494 326L493 323L511 318L516 301L522 300L526 294L532 289L534 289L535 291L537 288L539 288L542 284L540 281L542 279z"/><path class="leaflet-interactive" stroke="#3388ff" stroke-opacity="0" stroke-width="3" stroke-linecap="round" stroke-linejoin="round" fill="#3388ff" fill-opacity="0" fill-rule="evenodd" d="M737 474L740 479L741 473L745 468L749 456L749 450L743 450L738 456L736 462L734 463L736 473zM770 443L770 443zM761 445L762 444L761 445zM731 464L730 465zM763 443L763 443zM730 463L729 464L730 463zM730 466L730 466zM730 463L730 463zM750 446L750 446zM745 472L746 472zM746 477L746 477zM750 447L751 447zM729 467L729 467zM736 475L737 475z"/><path class="leaflet-interactive" stroke="#3388ff" stroke-opacity="0" stroke-width="3" stroke-linecap="round" stroke-linejoin="round" fill="#3388ff" fill-opacity="0" fill-rule="evenodd" d="M686 473L686 475L684 475L685 476L689 474L686 473zM686 476L687 476zM688 474L688 474zM688 474L688 474zM688 474L688 474zM688 475L688 475zM688 474L688 474zM688 475L688 475zM688 475L688 475z"/><path class="leaflet-interactive" stroke="#3388ff" stroke-opacity="0" stroke-width="3" stroke-linecap="round" stroke-linejoin="round" fill="#3388ff" fill-opacity="0" fill-rule="evenodd" d="M682 477L682 476zM682 476L682 476z"/><path class="leaflet-interactive" stroke="#3388ff" stroke-opacity="0" stroke-width="3" stroke-linecap="round" stroke-linejoin="round" fill="#3388ff" fill-opacity="0" fill-rule="evenodd" d="M754 465L756 455L754 465zM743 488L749 480L743 488zM729 512L734 503L729 512zM726 537L726 528L726 537zM723 569L722 571L725 562L724 565zM698 602L703 595L698 602zM672 631L668 632L676 629L673 630zM639 610L640 611L639 603L639 610zM654 567L656 564L656 560L655 566zM652 535L648 527L651 533z"/></g></svg>